<?xml version="1.0" standalone="no"?>
<!DOCTYPE svg PUBLIC "-//W3C//DTD SVG 20010904//EN"
 "http://www.w3.org/TR/2001/REC-SVG-20010904/DTD/svg10.dtd">
<svg version="1.0" xmlns="http://www.w3.org/2000/svg"
 width="1120.000000pt" height="1120.000000pt" viewBox="0 0 1120.000000 1120.000000"
 preserveAspectRatio="xMidYMid meet">

<g transform="translate(0.000000,1120.000000) scale(0.100000,-0.100000)"
fill="#000000" stroke="none">
<path d="M0 5600 l0 -5600 5600 0 5600 0 0 5600 0 5600 -5600 0 -5600 0 0
-5600z m6726 2066 l34 -34 0 -761 c0 -817 1 -804 -49 -831 -13 -7 -383 -10
-1118 -10 -1025 0 -1099 2 -1119 18 -12 9 -27 27 -33 39 -14 28 -16 1519 -1
1557 22 58 -33 55 1159 56 l1093 0 34 -34z m663 -392 c16 -28 37 -52 60 -63
l35 -18 -40 -26 c-22 -15 -48 -40 -57 -57 -22 -36 -34 -38 -46 -7 -9 23 -46
59 -87 83 -18 11 -17 13 8 22 33 14 67 49 80 85 6 15 13 27 16 27 4 0 18 -21
31 -46z m-3978 4 c13 -18 30 -38 39 -45 8 -6 24 -18 34 -26 19 -14 18 -16 -22
-42 -23 -15 -47 -40 -54 -56 -16 -37 -33 -37 -53 1 -9 17 -33 42 -55 56 -22
15 -40 28 -40 29 0 2 16 12 35 24 20 11 45 36 56 56 12 19 25 35 29 35 5 0 19
-15 31 -32z m279 -18 c0 -5 -4 -10 -9 -10 -6 0 -13 5 -16 10 -3 6 1 10 9 10 9
0 16 -4 16 -10z m4045 -30 c3 -5 -1 -10 -9 -10 -9 0 -16 5 -16 10 0 6 4 10 9
10 6 0 13 -4 16 -10z m-3717 -99 l31 -28 -28 -27 c-34 -32 -38 -32 -73 1 l-28
27 27 28 c15 15 30 28 34 28 4 0 21 -13 37 -29z m-317 -204 c-1 -12 -15 -9
-19 4 -3 6 1 10 8 8 6 -3 11 -8 11 -12z m3497 -10 c2 -12 -3 -17 -17 -17 -12
0 -21 6 -21 13 0 31 32 34 38 4z m277 -157 c0 -22 -39 -19 -43 3 -3 15 1 18
20 15 12 -2 23 -10 23 -18z m-3885 -71 c0 -25 -33 -22 -38 4 -2 12 3 17 17 17
15 0 21 -6 21 -21z m427 -61 l23 -22 -26 -27 -27 -28 -28 22 c-35 25 -36 33
-6 58 29 24 36 24 64 -3z m3738 -33 c0 -21 -31 -33 -46 -18 -5 5 -7 17 -3 27
9 24 49 17 49 -9z m-552 -33 l27 -28 -31 -23 -31 -23 -26 26 -26 25 24 26 c13
14 26 25 30 25 3 0 18 -13 33 -28z m-3786 -39 l34 -37 -39 -39 -38 -38 -40 40
-40 40 35 35 c20 20 40 36 46 36 5 0 24 -17 42 -37z m4515 -150 c34 -32 34
-40 6 -70 -27 -29 -35 -29 -68 4 l-28 27 27 33 c14 18 28 33 30 33 3 0 18 -12
33 -27z m-514 -36 c4 -21 -25 -34 -40 -19 -8 8 -8 16 2 27 16 19 34 15 38 -8z
m-3689 -21 c9 -10 8 -16 -4 -26 -19 -16 -41 1 -32 24 8 20 21 20 36 2z m419
-49 c2 -10 -3 -17 -12 -17 -18 0 -29 16 -21 31 9 14 29 6 33 -14z m-192 -242
c16 -25 12 -63 -10 -77 -35 -23 -96 6 -96 45 0 54 76 78 106 32z m3869 15 c3
-5 -1 -10 -10 -10 -9 0 -13 5 -10 10 3 6 8 10 10 10 2 0 7 -4 10 -10z m-4295
-30 c0 -5 -4 -10 -10 -10 -5 0 -10 5 -10 10 0 6 5 10 10 10 6 0 10 -4 10 -10z
m2349 -97 c6 -21 16 -59 23 -85 l12 -47 94 -3 93 -3 52 -97 c28 -53 49 -99 46
-103 -4 -3 -53 -1 -110 5 -192 20 -704 23 -909 6 -101 -8 -186 -13 -189 -10
-3 2 17 49 44 104 l49 100 97 0 96 0 22 85 23 85 274 0 273 0 10 -37z m1438
-39 c15 -24 15 -29 2 -53 -39 -70 -137 -11 -99 60 17 30 75 26 97 -7z m-3660
-180 c8 -21 -13 -42 -28 -27 -13 13 -5 43 11 43 6 0 13 -7 17 -16z m3863 -104
c0 -13 -7 -20 -20 -20 -13 0 -20 7 -20 20 0 13 7 20 20 20 13 0 20 -7 20 -20z
m-1550 -80 c85 -5 187 -12 225 -15 294 -24 879 -124 845 -145 -8 -5 -4 -9 10
-13 25 -6 18 -27 -9 -27 -23 0 -31 -9 -24 -26 4 -12 8 -12 21 -2 13 11 14 11
7 -1 -6 -11 -4 -13 11 -7 33 13 50 15 65 5 8 -5 9 -9 3 -9 -6 0 -10 -12 -9
-28 l2 -27 -59 9 c-32 5 -58 14 -58 18 0 5 -5 6 -10 3 -6 -4 -54 -1 -108 5
-135 15 -162 21 -162 32 0 6 9 8 21 5 13 -3 19 -1 16 6 -2 7 -17 11 -33 9
l-29 -3 25 20 25 20 -24 -6 c-13 -3 -26 -14 -28 -25 -6 -19 -23 -25 -23 -8 0
6 -8 10 -17 9 -11 0 -13 -3 -5 -6 38 -15 -13 -17 -143 -6 -443 37 -1104 45
-1506 18 -792 -53 -1525 -193 -2119 -404 -46 -16 -86 -29 -87 -27 -2 2 59 33
136 69 672 323 1463 513 2321 560 134 8 579 6 720 -3z m1160 -200 c0 -5 -2
-10 -4 -10 -3 0 -8 5 -11 10 -3 6 -1 10 4 10 6 0 11 -4 11 -10z m15 -80 c3 -5
1 -10 -4 -10 -6 0 -11 5 -11 10 0 6 2 10 4 10 3 0 8 -4 11 -10z m-75 -1240 l0
-540 -90 0 -90 0 0 51 0 51 -41 -37 c-23 -20 -56 -43 -75 -51 -85 -36 -231
-26 -324 21 -59 30 -125 102 -158 173 -25 52 -27 68 -27 182 0 119 1 128 31
190 40 83 111 153 183 182 82 32 226 32 298 0 28 -13 61 -35 74 -48 12 -13 25
-24 28 -24 3 0 4 88 3 195 l-4 195 96 0 96 0 0 -540z m-4140 470 c111 -12 148
-24 207 -63 68 -46 98 -109 98 -202 -1 -84 -24 -135 -86 -188 l-41 -36 46 -21
c57 -27 111 -87 125 -137 38 -134 -10 -253 -125 -312 -83 -43 -163 -52 -467
-49 l-282 3 -3 485 c-1 267 0 495 3 508 5 22 6 22 223 22 119 0 255 -5 302
-10z m942 -231 c106 -23 182 -75 233 -160 39 -64 68 -175 63 -243 l-3 -41
-297 -3 c-164 -1 -298 -5 -298 -7 0 -3 7 -22 15 -43 56 -134 255 -179 399 -91
27 17 52 26 56 22 4 -4 24 -27 45 -51 l38 -43 -28 -29 c-70 -74 -219 -112
-356 -92 -99 14 -173 47 -233 102 -154 142 -159 426 -9 575 89 89 243 132 375
104z m846 -5 c42 -9 94 -23 114 -32 l37 -17 -25 -60 c-13 -33 -28 -63 -32 -67
-4 -4 -32 2 -62 13 -34 13 -88 23 -140 26 -75 4 -90 2 -130 -19 -41 -21 -45
-27 -48 -64 -4 -56 17 -68 184 -105 140 -30 182 -46 222 -83 38 -33 52 -71 52
-132 0 -140 -104 -226 -289 -241 -114 -9 -284 26 -345 70 -17 12 -16 17 9 80
15 37 31 67 36 67 5 0 23 -9 41 -20 51 -31 169 -53 250 -48 87 7 123 29 123
79 0 46 -31 62 -195 99 -207 46 -266 96 -264 221 2 187 201 287 462 233z
m2984 5 c105 -22 197 -86 241 -166 32 -60 57 -159 57 -230 l0 -53 -296 0 -296
0 6 -31 c14 -73 90 -131 189 -147 89 -14 170 6 250 61 15 10 20 9 28 -6 6 -10
24 -33 40 -51 16 -19 29 -38 29 -42 -1 -16 -88 -75 -140 -95 -109 -41 -262
-35 -374 15 -234 105 -295 436 -115 631 54 58 108 91 184 109 75 18 129 19
197 5z m-2492 -261 c6 -285 5 -285 80 -335 61 -42 186 -27 236 29 47 51 49 61
52 321 l4 247 94 0 94 0 0 -390 0 -390 -91 0 -91 0 4 45 c2 25 2 45 0 45 -2 0
-22 -15 -44 -34 -108 -93 -331 -84 -436 17 -79 76 -92 139 -92 458 l0 250 93
-3 92 -3 5 -257z m2987 250 c4 -7 58 -131 119 -276 61 -145 114 -263 119 -263
7 0 101 216 202 464 l35 87 84 0 c58 0 84 -4 84 -12 0 -6 -42 -111 -94 -232
-52 -122 -123 -291 -158 -376 l-63 -155 -95 -3 -95 -2 -72 172 c-40 95 -113
267 -163 382 -49 114 -90 212 -90 217 0 14 177 11 187 -3z m-2055 -577 c54
-61 28 -166 -48 -191 -70 -24 -138 14 -154 85 -20 88 34 150 124 142 40 -4 55
-11 78 -36z"/>
<path d="M4630 6870 l0 -640 965 0 965 0 0 640 0 640 -965 0 -965 0 0 -640z
m1175 390 c0 -13 -43 -15 -319 -18 -187 -1 -324 2 -329 7 -28 28 10 31 326 29
278 -3 322 -5 322 -18z m180 -100 c0 -13 -61 -15 -479 -18 -284 -1 -484 2
-489 7 -29 29 11 31 486 29 421 -3 482 -5 482 -18z m238 6 c9 -22 -2 -26 -70
-26 -46 0 -63 4 -63 13 0 23 11 27 71 27 39 0 58 -4 62 -14z m-786 -161 c3 -9
4 -18 1 -20 -2 -2 -96 -5 -208 -6 -202 -1 -205 -1 -208 20 -3 21 -2 21 203 21
176 0 206 -2 212 -15z m741 -7 c3 -17 -13 -18 -227 -18 -186 0 -231 3 -231 13
0 8 3 17 7 21 4 3 106 5 227 4 201 -3 221 -5 224 -20z m-1103 -98 c0 -12 -21
-16 -119 -18 -115 -3 -146 4 -131 27 4 8 47 11 128 9 101 -3 122 -6 122 -18z
m945 0 c0 -20 -7 -20 -399 -20 -388 0 -423 3 -406 30 4 6 150 10 406 10 392 0
399 0 399 -20z m-199 -95 c31 -20 -27 -25 -272 -25 -217 0 -269 3 -269 13 0 8
2 16 4 18 7 6 526 0 537 -6z m533 -101 c9 -3 16 -12 16 -20 0 -11 -31 -14
-171 -14 -132 0 -170 3 -167 13 3 8 47 14 154 17 82 3 150 7 151 8 1 1 8 -1
17 -4z m-424 -19 c0 -13 -57 -15 -449 -15 -248 0 -452 4 -455 9 -3 4 -3 11 1
15 3 3 208 6 455 6 392 0 448 -2 448 -15z m-813 -181 c2 -6 -3 -14 -12 -17
-24 -10 -75 4 -75 20 0 17 81 14 87 -3z m1159 5 c14 -24 -27 -28 -255 -25
-130 2 -350 4 -488 5 -218 1 -253 3 -253 16 0 13 62 15 494 15 352 0 497 -3
502 -11z"/>
<path d="M6971 5281 c-9 -16 -8 -18 10 -14 14 4 17 8 9 13 -9 6 -9 9 1 13 9 4
10 6 2 6 -7 1 -17 -8 -22 -18z"/>
<path d="M6583 4064 c-51 -19 -108 -80 -122 -131 -16 -55 -13 -142 5 -196 58
-170 310 -185 393 -23 57 110 19 277 -75 332 -55 33 -141 40 -201 18z"/>
<path d="M2590 4175 l0 -135 170 0 c239 0 280 20 280 139 0 61 -33 105 -88
121 -20 5 -110 10 -199 10 l-163 0 0 -135z"/>
<path d="M2590 3745 l0 -147 198 4 c221 4 257 13 292 70 42 70 17 153 -58 190
-43 20 -65 23 -239 26 l-193 4 0 -147z"/>
<path d="M3683 4066 c-56 -27 -98 -77 -109 -134 l-6 -32 210 0 c116 0 213 3
215 8 9 14 -22 84 -50 114 -65 70 -168 87 -260 44z"/>
<path d="M7512 4064 c-53 -27 -93 -76 -107 -136 l-7 -28 216 0 216 0 -6 28
c-33 136 -182 201 -312 136z"/>
</g>
</svg>
